# Blender v2.92.0 OBJ File: 'Mausoleo_June_HWT.blend'
# www.blender.org
mtllib Mausoleo_Tettino.mtl
o tettino.app.bk_Cube.009
v 4.877882 3.538820 -1.368696
v 4.616910 3.345566 -1.168225
v 4.822620 3.345566 -1.168225
v 4.585593 3.513586 -1.345792
v 4.585593 3.488352 -1.322888
v 4.629927 3.471736 -1.282746
v 4.629927 3.446502 -1.259842
v 4.571136 3.412650 -1.254175
v 4.571136 3.387415 -1.231270
v 4.616910 3.370800 -1.191129
v 4.853937 3.513586 -1.345792
v 4.853937 3.488352 -1.322888
v 4.809602 3.471736 -1.282746
v 4.809602 3.446502 -1.259842
v 4.868394 3.412650 -1.254175
v 4.868394 3.387415 -1.231270
v 4.822620 3.370800 -1.191129
v 4.585593 3.538820 -1.368696
v 4.853937 3.538820 -1.368696
v 4.585593 3.513586 -1.345792
v 4.853937 3.513586 -1.345792
v 4.877882 3.513586 -1.345792
v 4.585593 3.538820 -1.368696
v 4.853937 3.538820 -1.368696
v 4.585593 3.513586 -1.345792
v 4.853937 3.513586 -1.345792
v 4.571136 3.406444 -1.274860
v 4.571136 3.381210 -1.251955
v 4.868394 3.406444 -1.274860
v 4.868394 3.381210 -1.251955
v 4.585593 3.532615 -1.389381
v 4.853937 3.532615 -1.389381
v 4.585593 3.507381 -1.366477
v 4.853937 3.507381 -1.366477
v 4.877882 3.532586 -1.389478
v 4.877882 3.507352 -1.366574
v 4.616910 3.839095 0.000000
v 4.877882 3.538820 1.368696
v 4.616910 3.345566 1.168225
v 4.822620 3.839095 0.000000
v 4.877882 4.149648 0.000000
v 4.822620 3.345566 1.168225
v 4.616910 3.877914 0.000000
v 4.571136 3.916733 0.000000
v 4.571136 3.955552 0.000000
v 4.629927 3.994371 0.000000
v 4.629927 4.033190 0.000000
v 4.585593 4.072010 0.000000
v 4.585593 4.110828 0.000000
v 4.585593 3.513586 1.345792
v 4.585593 3.488352 1.322888
v 4.629927 3.471736 1.282746
v 4.629927 3.446502 1.259842
v 4.571136 3.412650 1.254175
v 4.571136 3.387415 1.231270
v 4.616910 3.370800 1.191129
v 4.853937 3.513586 1.345792
v 4.853937 3.488352 1.322888
v 4.809602 3.471736 1.282746
v 4.809602 3.446502 1.259842
v 4.868394 3.412650 1.254175
v 4.868394 3.387415 1.231270
v 4.822620 3.370800 1.191129
v 4.853937 4.110828 0.000000
v 4.853937 4.072010 0.000000
v 4.809602 4.033190 0.000000
v 4.809602 3.994371 0.000000
v 4.868394 3.955552 0.000000
v 4.868394 3.916733 0.000000
v 4.822620 3.877914 0.000000
v 4.585593 4.110828 0.000000
v 4.585593 4.149648 0.000000
v 4.585593 3.538820 1.368696
v 4.853937 3.538820 1.368696
v 4.853937 4.149648 0.000000
v 4.585593 3.513586 1.345792
v 4.853937 3.513586 1.345792
v 4.853937 4.110828 0.000000
v 4.877882 3.513586 1.345792
v 4.877882 4.110828 0.000000
v 4.585593 3.538820 1.368696
v 4.853937 3.538820 1.368696
v 4.585593 3.513586 1.345792
v 4.853937 3.513586 1.345792
v 4.571136 3.406444 1.274860
v 4.571136 3.381210 1.251955
v 4.868394 3.406444 1.274860
v 4.868394 3.381210 1.251955
v 4.585593 3.532615 1.389381
v 4.853937 3.532615 1.389381
v 4.585593 3.507381 1.366477
v 4.853937 3.507381 1.366477
v 4.877882 3.532586 1.389478
v 4.877882 3.507352 1.366574
vt 0.666249 0.783411
vt 0.661565 0.501880
vt 0.666249 0.501880
vt 0.119494 0.539574
vt 0.007594 0.271820
vt 0.124431 0.535093
vt 0.533871 0.743391
vt 0.574113 0.501883
vt 0.574113 0.743394
vt 0.301980 0.526547
vt 0.301980 0.526547
vt 0.301980 0.526547
vt 0.934734 0.964829
vt 0.843123 0.731812
vt 0.939671 0.960348
vt 0.652612 0.506305
vt 0.661565 0.757481
vt 0.652612 0.753002
vt 0.941736 0.494748
vt 0.843123 0.249397
vt 0.946672 0.490267
vt 0.959387 0.000000
vt 0.947886 0.195603
vt 0.947886 0.003370
vt 0.718236 0.501880
vt 0.615994 0.250940
vt 0.723172 0.497399
vt 0.617075 0.506305
vt 0.625746 0.778224
vt 0.617075 0.773746
vt 0.366918 0.526547
vt 0.257676 0.263273
vt 0.371855 0.522066
vt 0.310338 0.575745
vt 0.316783 0.535501
vt 0.316783 0.575744
vt 0.301980 0.584699
vt 0.310338 0.535502
vt 0.380054 0.584699
vt 0.376070 0.526547
vt 0.380054 0.526547
vt 0.276200 0.526547
vt 0.280733 0.573196
vt 0.276200 0.584699
vt 0.287178 0.538046
vt 0.280733 0.538046
vt 0.295535 0.529374
vt 0.287178 0.573195
vt 0.301980 0.529373
vt 0.295535 0.581869
vt 0.730767 0.731812
vt 0.822378 0.498794
vt 0.827314 0.503275
vt 0.652612 0.501880
vt 0.643656 0.753054
vt 0.643656 0.506357
vt 0.730766 0.249397
vt 0.829379 0.004046
vt 0.834315 0.008527
vt 0.585614 0.697483
vt 0.574113 0.501880
vt 0.585615 0.505250
vt 0.501222 0.250940
vt 0.603464 0.000000
vt 0.608400 0.004481
vt 0.617075 0.501880
vt 0.608400 0.773798
vt 0.608400 0.506357
vt 0.379449 0.263273
vt 0.488692 0.000000
vt 0.493628 0.004481
vt 0.133245 0.267754
vt 0.245145 0.000000
vt 0.250082 0.004481
vt 0.301980 0.526547
vt 0.301980 0.526547
vt 0.301980 0.526547
vt 0.992167 0.791477
vt 0.996850 1.000000
vt 0.992167 1.000000
vt 0.939671 1.000000
vt 0.301980 0.526547
vt 0.301980 0.526547
vt 0.301980 0.526547
vt 0.301980 0.526547
vt 0.390792 0.579042
vt 0.387432 0.526547
vt 0.390792 0.526547
vt 0.301980 0.526547
vt 0.301980 0.526547
vt 0.301980 0.526547
vt 0.344546 0.526547
vt 0.338101 0.584699
vt 0.338101 0.526547
vt 0.357543 0.526548
vt 0.351087 0.579042
vt 0.351098 0.526547
vt 0.380059 0.526547
vt 0.384038 0.579042
vt 0.380054 0.579042
vt 0.835529 0.004481
vt 0.398416 0.533214
vt 0.394604 0.528368
vt 0.398416 0.526547
vt 0.947886 0.494314
vt 0.942950 0.498794
vt 0.384056 0.526547
vt 0.387416 0.584699
vt 0.384056 0.584699
vt 0.125650 0.539159
vt 0.120714 0.543639
vt 0.390792 0.583726
vt 0.387432 0.579042
vt 0.357532 0.579043
vt 0.351098 0.583726
vt 0.380054 0.583726
vt 0.603716 0.786351
vt 0.608400 0.501880
vt 0.608400 0.786350
vt 0.119494 0.004066
vt 0.124431 0.008546
vt 0.533871 0.746166
vt 0.493628 0.501882
vt 0.533871 0.501880
vt 0.301980 0.526547
vt 0.301980 0.526547
vt 0.934734 0.498794
vt 0.939671 0.503275
vt 0.634703 0.755502
vt 0.643656 0.501880
vt 0.643656 0.760323
vt 0.941736 0.004046
vt 0.946672 0.008527
vt 0.959387 0.461344
vt 0.947886 0.462638
vt 0.718236 0.000000
vt 0.723172 0.004481
vt 0.594290 0.776324
vt 0.602961 0.501880
vt 0.602961 0.781145
vt 0.366918 0.000000
vt 0.371855 0.004481
vt 0.316783 0.535502
vt 0.323312 0.575745
vt 0.316783 0.575745
vt 0.323312 0.535502
vt 0.331571 0.584699
vt 0.357544 0.584699
vt 0.361599 0.526547
vt 0.361599 0.584699
vt 0.250082 0.584699
vt 0.254882 0.538050
vt 0.254882 0.573199
vt 0.261411 0.573199
vt 0.261411 0.538050
vt 0.269670 0.581872
vt 0.269670 0.529377
vt 0.276200 0.581872
vt 0.822378 0.964829
vt 0.723172 0.731812
vt 0.634703 0.755501
vt 0.625746 0.501880
vt 0.634703 0.506010
vt 0.829379 0.494748
vt 0.723172 0.249397
vt 0.574113 0.963224
vt 0.574113 0.694809
vt 0.603464 0.501880
vt 0.493628 0.250940
vt 0.585615 0.506702
vt 0.594290 0.781145
vt 0.585615 0.777014
vt 0.488692 0.526547
vt 0.371855 0.263274
vt 0.245145 0.535508
vt 0.125650 0.267754
vt 0.301980 0.526547
vt 0.301980 0.526547
vt 0.301980 0.526547
vt 0.996850 0.498794
vt 0.992167 0.498794
vt 0.939671 0.498794
vt 0.301980 0.526547
vt 0.301980 0.526547
vt 0.301980 0.526547
vt 0.371835 0.526547
vt 0.367620 0.579042
vt 0.367620 0.526547
vt 0.301980 0.526547
vt 0.301980 0.526547
vt 0.301980 0.526547
vt 0.331571 0.526547
vt 0.338101 0.584699
vt 0.331571 0.584699
vt 0.344546 0.531232
vt 0.351087 0.583727
vt 0.344557 0.583728
vt 0.365656 0.531231
vt 0.361604 0.583726
vt 0.361600 0.531231
vt 0.835529 0.494314
vt 0.834315 0.490267
vt 0.390792 0.533214
vt 0.394604 0.528368
vt 0.394604 0.535035
vt 0.947886 0.004481
vt 0.371855 0.584699
vt 0.376070 0.526547
vt 0.376070 0.584699
vt 0.125650 0.004481
vt 0.371835 0.579042
vt 0.367620 0.583726
vt 0.344557 0.526548
vt 0.351076 0.531231
vt 0.361599 0.526547
vt 0.365674 0.526547
vt 0.661565 0.783410
vt 0.000000 0.271820
vt 0.533871 0.501880
vt 0.835529 0.731812
vt 0.661565 0.501880
vt 0.835529 0.249397
vt 0.959387 0.192929
vt 0.608400 0.250940
vt 0.625746 0.501880
vt 0.250082 0.263274
vt 0.301980 0.526547
vt 0.376070 0.584699
vt 0.301980 0.581869
vt 0.652612 0.757481
vt 0.617075 0.778224
vt 0.996851 0.791477
vt 0.939671 0.791477
vt 0.344546 0.584699
vt 0.384043 0.526547
vt 0.830593 0.000000
vt 0.394604 0.535034
vt 0.387416 0.526547
vt 0.387416 0.583726
vt 0.357543 0.583728
vt 0.384056 0.583726
vt 0.603716 0.501880
vt 0.493628 0.746168
vt 0.634704 0.506011
vt 0.594290 0.506011
vt 0.331571 0.526547
vt 0.357544 0.526547
vt 0.250082 0.526547
vt 0.276200 0.529377
vt 0.827314 0.960348
vt 0.625746 0.760323
vt 0.585615 0.964518
vt 0.608400 0.497399
vt 0.594290 0.501880
vt 0.493628 0.522066
vt 0.250082 0.531028
vt 0.338101 0.526547
vt 0.365660 0.583726
vt 0.830593 0.498794
vt 0.390792 0.526547
vt 0.942950 0.000000
vt 0.371855 0.526547
vt 0.120714 0.000000
vt 0.371855 0.583726
vt 0.351087 0.526547
vn 0.0000 -0.9140 0.4056
vn 1.0000 0.0000 0.0000
vn 0.0000 -0.9212 0.3892
vn 0.0000 0.0000 1.0000
vn 0.6152 -0.7254 0.3088
vn 0.4930 0.7984 -0.3456
vn 0.6257 -0.7146 0.3128
vn 0.0000 -0.6721 -0.7405
vn 0.0000 -0.9240 -0.3825
vn 0.0000 -0.9578 0.2874
vn 0.0000 -0.1651 -0.9863
vn -1.0000 0.0000 0.0000
vn -0.6152 -0.7254 0.3088
vn -0.4930 0.7984 -0.3456
vn -0.6257 -0.7146 0.3128
vn 0.0000 0.9132 -0.4075
vn 0.0000 0.9578 -0.2874
vn -0.0038 -0.6721 -0.7405
vn 0.0000 -0.9140 -0.4056
vn 0.0000 -0.9212 -0.3892
vn 0.5622 -0.7598 -0.3266
vn 0.4930 0.7984 0.3456
vn 0.5780 -0.7466 -0.3294
vn 0.0000 -0.6721 0.7405
vn 0.0000 -0.9240 0.3824
vn 0.0000 -0.9578 -0.2874
vn 0.0000 -0.1651 0.9863
vn 0.0000 -0.9240 0.3825
vn -0.6152 -0.7254 -0.3088
vn -0.5180 0.7844 0.3411
vn -0.6257 -0.7146 -0.3128
vn 0.0000 0.9132 0.4075
vn 0.0000 0.9578 0.2874
vn -0.0038 -0.6721 0.7405
vn 0.5622 -0.7598 0.3266
vn 0.5180 0.7844 -0.3411
vn 0.5780 -0.7466 0.3294
vn 0.0000 -0.9240 -0.3824
vn -0.5622 -0.7598 0.3266
vn -0.5180 0.7844 -0.3411
vn -0.5780 -0.7466 0.3294
vn 0.0000 0.9578 -0.2873
vn 0.0000 -0.9578 0.2873
vn 0.6152 -0.7254 -0.3088
vn 0.5180 0.7844 0.3411
vn 0.6257 -0.7146 -0.3128
vn -0.5622 -0.7598 -0.3266
vn -0.4930 0.7984 0.3456
vn -0.5780 -0.7466 -0.3294
vn 0.0000 0.9578 0.2873
vn 0.0000 -0.9578 -0.2873
usemtl M_Tettino
s off
f 21/1/1 80/2/1 78/3/1
f 1/4/2 80/5/2 22/6/2
f 3/7/3 37/8/3 2/9/3
f 4/10/4 71/11/4 20/12/4
f 17/13/2 40/14/2 3/15/2
f 17/16/5 69/17/5 70/18/5
f 15/19/2 69/20/2 16/21/2
f 14/22/6 68/23/6 15/24/6
f 13/25/2 67/26/2 14/27/2
f 13/28/7 65/29/7 66/30/7
f 11/31/2 65/32/2 12/33/2
f 10/34/8 3/35/8 2/36/8
f 9/37/9 17/38/9 10/34/9
f 9/39/10 30/40/10 16/41/10
f 8/42/11 14/43/11 15/44/11
f 6/45/8 14/43/8 7/46/8
f 5/47/9 13/48/9 6/45/9
f 4/49/8 12/50/8 5/47/8
f 37/51/12 10/52/12 2/53/12
f 44/54/13 10/55/13 43/56/13
f 44/57/12 8/58/12 9/59/12
f 45/60/14 7/61/14 8/62/14
f 46/63/12 6/64/12 7/65/12
f 48/66/15 6/67/15 47/68/15
f 48/69/12 4/70/12 5/71/12
f 71/72/12 18/73/12 20/74/12
f 18/75/4 24/76/4 23/77/4
f 75/78/16 1/79/16 19/80/16
f 18/81/16 75/78/16 19/80/16
f 64/82/4 21/83/4 78/84/4
f 11/85/4 20/12/4 21/83/4
f 24/86/17 31/87/17 23/88/17
f 21/83/4 25/89/4 26/90/4
f 20/12/4 23/77/4 25/89/4
f 19/91/4 26/90/4 24/76/4
f 27/92/8 30/93/8 28/94/8
f 31/95/8 34/96/8 33/97/8
f 25/98/10 34/99/10 26/100/10
f 8/58/12 28/101/12 9/59/12
f 23/102/12 33/103/12 25/104/12
f 15/19/2 30/105/2 29/106/2
f 15/107/17 27/108/17 8/109/17
f 1/4/2 36/110/2 35/111/2
f 1/112/17 32/113/17 24/86/17
f 32/114/18 36/115/18 34/96/18
f 34/99/10 22/116/10 26/100/10
f 80/117/19 77/118/19 78/119/19
f 80/5/2 38/120/2 79/121/2
f 37/122/20 42/123/20 39/124/20
f 50/125/4 71/11/4 49/126/4
f 40/14/2 63/127/2 42/128/2
f 63/129/21 69/130/21 62/131/21
f 69/20/2 61/132/2 62/133/2
f 68/23/22 60/134/22 61/135/22
f 67/26/2 59/136/2 60/137/2
f 59/138/23 65/139/23 58/140/23
f 65/32/2 57/141/2 58/142/2
f 42/143/24 56/144/24 39/145/24
f 63/146/25 55/147/25 56/144/25
f 88/148/26 55/149/26 62/150/26
f 54/151/27 60/152/27 53/153/27
f 60/152/24 52/154/24 53/153/24
f 59/155/28 51/156/28 52/154/28
f 58/157/24 50/158/24 51/156/24
f 37/51/12 56/159/12 43/160/12
f 56/161/29 44/162/29 43/163/29
f 44/57/12 54/164/12 45/165/12
f 45/60/30 53/166/30 46/167/30
f 46/63/12 52/168/12 47/169/12
f 52/170/31 48/171/31 47/172/31
f 48/69/12 50/173/12 49/174/12
f 71/72/12 73/175/12 72/176/12
f 73/177/4 82/178/4 74/179/4
f 38/180/32 75/78/32 74/181/32
f 75/78/32 73/182/32 74/181/32
f 64/82/4 77/183/4 57/184/4
f 57/184/4 76/185/4 50/125/4
f 89/186/33 82/187/33 81/188/33
f 77/183/4 83/189/4 76/185/4
f 76/185/4 81/190/4 73/177/4
f 74/179/4 84/191/4 77/183/4
f 88/192/24 85/193/24 86/194/24
f 92/195/24 89/196/24 91/197/24
f 92/198/26 83/199/26 84/200/26
f 86/201/12 54/164/12 55/202/12
f 91/203/12 81/204/12 83/205/12
f 61/132/2 88/206/2 62/133/2
f 85/207/33 61/208/33 54/209/33
f 38/120/2 94/210/2 79/121/2
f 90/211/33 38/212/33 82/187/33
f 94/213/34 90/214/34 92/195/34
f 92/198/26 79/215/26 94/216/26
f 21/1/1 22/217/1 80/2/1
f 1/4/2 41/218/2 80/5/2
f 3/7/3 40/219/3 37/8/3
f 4/10/4 49/126/4 71/11/4
f 17/13/2 70/220/2 40/14/2
f 17/16/35 16/221/35 69/17/35
f 15/19/2 68/222/2 69/20/2
f 14/22/36 67/223/36 68/23/36
f 13/25/2 66/224/2 67/26/2
f 13/28/37 12/225/37 65/29/37
f 11/31/2 64/226/2 65/32/2
f 10/34/8 17/38/8 3/35/8
f 9/37/9 16/227/9 17/38/9
f 9/39/10 28/228/10 30/40/10
f 8/42/11 7/46/11 14/43/11
f 6/45/8 13/48/8 14/43/8
f 5/47/38 12/50/38 13/48/38
f 4/49/8 11/229/8 12/50/8
f 37/51/12 43/160/12 10/52/12
f 44/54/39 9/230/39 10/55/39
f 44/57/12 45/165/12 8/58/12
f 45/60/40 46/167/40 7/61/40
f 46/63/12 47/169/12 6/64/12
f 48/66/41 5/231/41 6/67/41
f 48/69/12 49/174/12 4/70/12
f 71/72/12 72/176/12 18/73/12
f 18/75/4 19/91/4 24/76/4
f 75/78/16 41/232/16 1/79/16
f 18/81/16 72/233/16 75/78/16
f 64/82/4 11/85/4 21/83/4
f 11/85/4 4/10/4 20/12/4
f 24/86/42 32/113/42 31/87/42
f 21/83/4 20/12/4 25/89/4
f 20/12/4 18/75/4 23/77/4
f 19/91/4 21/83/4 26/90/4
f 27/92/8 29/234/8 30/93/8
f 31/95/8 32/114/8 34/96/8
f 25/98/43 33/235/43 34/99/43
f 8/58/12 27/236/12 28/101/12
f 23/102/12 31/237/12 33/103/12
f 15/19/2 16/21/2 30/105/2
f 15/107/17 29/238/17 27/108/17
f 1/4/2 22/6/2 36/110/2
f 1/112/42 35/239/42 32/113/42
f 32/114/18 35/240/18 36/115/18
f 34/99/10 36/241/10 22/116/10
f 80/117/19 79/242/19 77/118/19
f 80/5/2 41/218/2 38/120/2
f 37/122/20 40/243/20 42/123/20
f 50/125/4 76/185/4 71/11/4
f 40/14/2 70/220/2 63/127/2
f 63/129/44 70/244/44 69/130/44
f 69/20/2 68/222/2 61/132/2
f 68/23/45 67/223/45 60/134/45
f 67/26/2 66/224/2 59/136/2
f 59/138/46 66/245/46 65/139/46
f 65/32/2 64/226/2 57/141/2
f 42/143/24 63/146/24 56/144/24
f 63/146/28 62/246/28 55/147/28
f 88/148/26 86/247/26 55/149/26
f 54/151/27 61/248/27 60/152/27
f 60/152/24 59/155/24 52/154/24
f 59/155/25 58/157/25 51/156/25
f 58/157/24 57/249/24 50/158/24
f 37/51/12 39/250/12 56/159/12
f 56/161/47 55/251/47 44/162/47
f 44/57/12 55/202/12 54/164/12
f 45/60/48 54/252/48 53/166/48
f 46/63/12 53/253/12 52/168/12
f 52/170/49 51/254/49 48/171/49
f 48/69/12 51/255/12 50/173/12
f 71/72/12 76/256/12 73/175/12
f 73/177/4 81/190/4 82/178/4
f 38/180/32 41/232/32 75/78/32
f 75/78/32 72/233/32 73/182/32
f 64/82/4 78/84/4 77/183/4
f 57/184/4 77/183/4 76/185/4
f 89/186/50 90/211/50 82/187/50
f 77/183/4 84/191/4 83/189/4
f 76/185/4 83/189/4 81/190/4
f 74/179/4 82/178/4 84/191/4
f 88/192/24 87/257/24 85/193/24
f 92/195/24 90/214/24 89/196/24
f 92/198/51 91/258/51 83/199/51
f 86/201/12 85/259/12 54/164/12
f 91/203/12 89/260/12 81/204/12
f 61/132/2 87/261/2 88/206/2
f 85/207/33 87/262/33 61/208/33
f 38/120/2 93/263/2 94/210/2
f 90/211/50 93/264/50 38/212/50
f 94/213/34 93/265/34 90/214/34
f 92/198/26 84/200/26 79/215/26
