# Blender v2.92.0 OBJ File: 'Mausoleo_June_HWT.blend'
# www.blender.org
mtllib Mausoleo_Tetto.mtl
o TettoFräsch.App.BK_TettoFräsch.App.BK_Cube.002
v 4.751490 3.355469 2.586423
v 4.751489 4.602113 0.007191
v 4.760949 4.602113 0.007191
v 4.760949 3.355469 2.586423
v 4.695505 3.355469 2.504101
v 4.695505 4.562324 0.007191
v 4.734955 4.562324 0.007191
v 4.734956 3.355469 2.504101
v -4.734956 3.355469 2.504101
v -4.734955 4.562324 0.007191
v -4.695505 4.562324 0.007191
v -4.695505 3.355469 2.504101
v -4.695505 3.355470 -2.504100
v -4.695505 4.562324 -0.007189
v -4.734955 4.562324 -0.007189
v -4.734955 3.355470 -2.504100
v 4.667458 4.735593 0.088505
v -4.667458 4.735593 0.088505
v -4.667458 4.695804 0.088505
v 4.667458 4.695804 0.088505
v 4.769214 3.359921 -2.916445
v 4.769214 4.769552 0.000001
v 4.769214 3.359921 2.916445
v 4.769214 3.359921 2.595460
v 4.769214 4.614408 0.000001
v 4.769214 3.359921 -2.595459
v 4.667458 3.394773 -2.862585
v -4.667458 3.394773 -2.862585
v -4.667458 3.354984 -2.862585
v 4.667458 3.354984 -2.862585
v -4.769214 3.359921 2.916445
v -4.769214 4.769552 0.000001
v -4.769214 3.359921 -2.916445
v -4.769214 3.359921 -2.595460
v -4.769214 4.614408 0.000001
v -4.769214 3.359921 2.595460
v 4.678972 3.355470 -2.428638
v 4.678972 4.525850 -0.007189
v 4.639523 4.525850 -0.007189
v 4.639523 3.355471 -2.428638
v -4.760949 3.351995 -2.943089
v 4.760949 3.351995 -2.943089
v 4.760949 3.351995 -2.601612
v 4.734956 3.351995 -2.601613
v 4.734955 3.351995 -2.519289
v 4.678972 3.351995 -2.519289
v 4.678972 3.351995 -2.443828
v 4.622989 3.351995 -2.443828
v 4.622989 3.351995 2.443829
v 4.678972 3.351995 2.443829
v 4.678972 3.351995 2.519290
v 4.734956 3.351995 2.519290
v 4.734956 3.351995 2.601614
v 4.760949 3.351995 2.601614
v 4.760949 3.351995 2.943089
v -4.760949 3.351995 2.943089
v -4.760949 3.351995 2.601614
v -4.734956 3.351995 2.601614
v -4.734956 3.351995 2.519290
v -4.678972 3.351995 2.519290
v -4.678972 3.351995 2.443829
v -4.622989 3.351995 2.443829
v -4.622989 3.351995 -2.443828
v -4.678972 3.351995 -2.443828
v -4.678972 3.351995 -2.519289
v -4.734955 3.351995 -2.519289
v -4.734956 3.351995 -2.601612
v -4.760949 3.351995 -2.601613
v -4.743222 3.359921 -2.513138
v -4.743222 4.570751 -0.007999
v -4.743222 4.592903 -0.007999
v -4.743223 3.359921 -2.558969
v -4.639523 3.355470 -2.428638
v -4.639523 4.525850 -0.007189
v -4.678972 4.525850 -0.007189
v -4.678972 3.355470 -2.428638
v 4.743222 4.570751 0.008001
v 4.743222 4.592903 0.008001
v 4.743223 3.359921 2.558969
v 4.743223 3.359921 2.513139
v -4.631255 3.359921 2.401186
v -4.631255 4.520506 0.000001
v -4.631255 3.359921 -2.401185
v 4.734955 3.355470 -2.504100
v 4.734955 4.562324 -0.007189
v 4.695505 4.562324 -0.007189
v 4.695505 3.355470 -2.504100
v -4.760949 4.602113 0.007191
v -4.751489 4.602113 0.007191
v -4.751490 3.355469 2.586423
v -4.760949 3.355469 2.586423
v 4.687239 3.359921 -2.476645
v 4.687239 4.553113 -0.007999
v 4.687239 4.534278 -0.007999
v 4.687239 3.359921 -2.437675
v 4.743223 3.359921 -2.558969
v 4.743222 4.592903 -0.007999
v 4.743222 4.570751 -0.007999
v 4.743222 3.359921 -2.513138
v -4.678972 3.355469 2.428638
v -4.678972 4.525850 0.007191
v -4.639523 4.525850 0.007191
v -4.639523 3.355469 2.428638
v -4.687239 4.534278 0.008001
v -4.687239 3.359921 2.437676
v -4.687239 3.359921 2.476646
v -4.687239 4.553113 0.008001
v 4.639523 3.355469 2.428638
v 4.639523 4.525850 0.007191
v 4.678972 4.525850 0.007191
v 4.678972 3.355469 2.428638
v -4.743222 4.570751 0.008001
v -4.743223 3.359921 2.513139
v -4.743223 3.359921 2.558969
v -4.743222 4.592903 0.008001
v 4.687239 4.534278 0.008001
v 4.687239 4.553113 0.008001
v 4.687239 3.359921 2.476646
v 4.687239 3.359921 2.437676
v 4.760949 4.602113 -0.007189
v 4.751489 4.602113 -0.007189
v 4.751490 3.355470 -2.586421
v 4.760949 3.355471 -2.586421
v -4.751490 3.355470 -2.586422
v -4.751489 4.602113 -0.007189
v -4.760949 4.602113 -0.007189
v -4.760949 3.355470 -2.586422
v -4.687239 3.359921 -2.437675
v -4.687239 4.534278 -0.007999
v -4.687239 4.553113 -0.007999
v -4.687239 3.359921 -2.476645
v 4.631255 4.520506 0.000001
v -4.760949 3.355469 2.943899
v -4.760949 4.774896 0.007191
v -4.760949 4.774896 -0.007189
v -4.760949 3.355470 -2.943898
v 4.760949 3.355469 2.943899
v 4.760949 4.774896 -0.007189
v 4.760949 4.774896 0.007191
v 4.760949 3.355470 -2.943898
v 4.631255 3.359921 -2.401184
v 4.631255 3.359921 2.401186
v -4.667458 3.394773 2.862586
v -4.667458 4.735593 -0.088503
v 4.667458 3.394773 2.862586
v 4.667458 4.735593 -0.088503
v 4.667458 3.354983 2.862586
v -4.667458 3.354983 2.862586
v -4.667458 4.695804 -0.088503
v 4.667458 4.695804 -0.088503
vt 0.505383 0.001150
vt 0.652870 0.000536
vt 0.652870 0.001150
vt 0.505383 0.000536
vt 0.505383 0.004780
vt 0.648163 0.002222
vt 0.648163 0.004780
vt 0.505383 0.002221
vt 0.505383 0.616393
vt 0.648163 0.613835
vt 0.648163 0.616394
vt 0.505383 0.613835
vt 0.504561 0.613835
vt 0.361781 0.616393
vt 0.361781 0.613835
vt 0.504561 0.616393
vt 0.995060 0.000000
vt 0.997329 0.605416
vt 0.995060 0.605416
vt 0.997329 0.000000
vt 0.673566 0.802708
vt 0.754167 0.628768
vt 0.682437 0.802708
vt 0.754167 0.976648
vt 0.754167 0.998160
vt 0.754167 0.607257
vt 0.992791 0.000000
vt 0.995060 0.605416
vt 0.992791 0.605416
vt 0.995060 0.000000
vt 0.835685 0.802708
vt 0.755083 0.976648
vt 0.826814 0.802708
vt 0.755083 0.628768
vt 0.755083 0.607256
vt 0.755083 0.998160
vt 0.504561 0.005852
vt 0.366096 0.008411
vt 0.366096 0.005853
vt 0.504561 0.008411
vt 0.649031 0.005853
vt 0.653738 0.002222
vt 0.673265 0.000536
vt 0.356205 0.618079
vt 0.336679 0.618079
vt 0.356205 0.616394
vt 0.336679 0.000536
vt 0.365228 0.609132
vt 0.360913 0.612763
vt 0.356205 0.000536
vt 0.356205 0.002222
vt 0.360913 0.002222
vt 0.360913 0.005853
vt 0.365228 0.005853
vt 0.365228 0.009484
vt 0.644716 0.009484
vt 0.644716 0.005853
vt 0.360913 0.616393
vt 0.365228 0.612763
vt 0.649031 0.612763
vt 0.644716 0.612763
vt 0.644716 0.609132
vt 0.653738 0.616394
vt 0.649031 0.616394
vt 0.673265 0.618079
vt 0.649031 0.002222
vt 0.653738 0.618079
vt 0.653738 0.000536
vt 0.142523 0.624545
vt 0.072021 0.792432
vt 0.142523 0.621473
vt 0.142523 0.961391
vt 0.072021 0.793504
vt 0.073288 0.793504
vt 0.073288 0.792432
vt 0.142523 0.964463
vt 0.504561 0.610204
vt 0.366096 0.612763
vt 0.366096 0.610204
vt 0.504561 0.612763
vt 0.000531 0.792432
vt 0.071033 0.624545
vt 0.001798 0.792432
vt 0.000531 0.793504
vt 0.071033 0.961391
vt 0.071033 0.964463
vt 0.071033 0.621473
vt 0.001798 0.793504
vt 0.415213 0.943314
vt 0.348852 0.782394
vt 0.415213 0.621473
vt 0.504561 0.002221
vt 0.361781 0.004780
vt 0.361781 0.002222
vt 0.504561 0.004780
vt 0.505383 0.617466
vt 0.652870 0.618079
vt 0.505383 0.618079
vt 0.652870 0.617466
vt 0.143513 0.787987
vt 0.211739 0.950817
vt 0.211739 0.953429
vt 0.143513 0.786915
vt 0.211739 0.624085
vt 0.144589 0.786915
vt 0.144589 0.787987
vt 0.211739 0.621473
vt 0.505383 0.612763
vt 0.643847 0.610204
vt 0.643847 0.612763
vt 0.505383 0.610204
vt 0.280954 0.950817
vt 0.212728 0.787987
vt 0.213805 0.787987
vt 0.280954 0.624085
vt 0.212728 0.786915
vt 0.280954 0.621473
vt 0.213805 0.786915
vt 0.280954 0.953429
vt 0.505383 0.008411
vt 0.643847 0.005853
vt 0.643847 0.008411
vt 0.505383 0.005852
vt 0.504561 0.001150
vt 0.357074 0.000536
vt 0.504561 0.000536
vt 0.357074 0.001150
vt 0.504561 0.617466
vt 0.357074 0.618079
vt 0.357074 0.617466
vt 0.504561 0.618079
vt 0.504972 0.008947
vt 0.145076 0.786969
vt 0.145076 0.787933
vt 0.002285 0.792486
vt 0.002285 0.793450
vt 0.142981 0.787933
vt 0.142981 0.786969
vt 0.000000 0.793450
vt 0.000000 0.792486
vt 0.504972 0.609668
vt 0.214292 0.787933
vt 0.214292 0.786969
vt 0.073775 0.792486
vt 0.073775 0.793450
vt 0.212196 0.786969
vt 0.212196 0.787933
vt 0.071490 0.793450
vt 0.071490 0.792486
vt 0.754625 0.605471
vt 0.754824 0.605416
vt 0.168751 0.000536
vt 0.167928 0.000536
vt 0.168339 0.000000
vt 0.754625 0.999945
vt 0.754824 0.999999
vt 0.754427 0.605417
vt 0.754625 0.605471
vt 0.168339 0.618615
vt 0.167928 0.618079
vt 0.168751 0.618079
vt 0.754427 1.000000
vt 0.754625 0.999945
vt 0.356557 0.000000
vt 0.358644 0.001685
vt 0.683144 0.802226
vt 0.683144 0.803190
vt 0.651300 0.001685
vt 0.653387 0.000000
vt 0.363351 0.005316
vt 0.648679 0.001685
vt 0.361265 0.001685
vt 0.646593 0.005316
vt 0.644364 0.005316
vt 0.365580 0.005316
vt 0.367666 0.008947
vt 0.642277 0.008947
vt 0.642277 0.609668
vt 0.644364 0.613299
vt 0.367666 0.609668
vt 0.365580 0.613299
vt 0.358644 0.616930
vt 0.356557 0.618615
vt 0.826106 0.802226
vt 0.826106 0.803190
vt 0.363351 0.613299
vt 0.361265 0.616930
vt 0.653387 0.618615
vt 0.651300 0.616930
vt 0.648679 0.616930
vt 0.646593 0.613299
vt 0.348084 0.621473
vt 0.281412 0.781912
vt 0.348333 0.619633
vt 0.281722 0.782394
vt 0.348541 0.782876
vt 0.415463 0.945154
vt 0.754625 0.628355
vt 0.835986 0.802226
vt 0.999597 0.000000
vt 0.999799 0.617543
vt 0.999597 0.617543
vt 0.999799 0.000000
vt 0.754625 0.977061
vt 0.835986 0.803190
vt 0.673265 0.802226
vt 1.000000 0.617543
vt 0.999798 0.000000
vt 1.000000 0.000000
vt 0.999798 0.617543
vt 0.673265 0.803190
vt 0.754426 0.976043
vt 0.754427 0.629374
vt 0.071490 0.624132
vt 0.071490 0.618615
vt 0.071490 0.961803
vt 0.071490 0.967320
vt 0.212196 0.951229
vt 0.212196 0.956287
vt 0.212196 0.623673
vt 0.212196 0.618616
vt 0.348541 0.618616
vt 0.348084 0.943314
vt 0.348541 0.946172
vt 0.754824 0.976042
vt 0.415671 0.946172
vt 0.415671 0.618616
vt 0.281412 0.623673
vt 0.281412 0.618616
vt 0.142981 0.624133
vt 0.142981 0.618616
vt 0.754824 0.629373
vt 0.142981 0.961804
vt 0.142981 0.967321
vt 0.281412 0.951229
vt 0.281412 0.956286
vt 0.281203 0.955268
vt 0.281213 0.950211
vt 0.142772 0.966303
vt 0.281203 0.619633
vt 0.142782 0.625150
vt 0.281213 0.624691
vt 0.142772 0.619633
vt 0.754625 0.628356
vt 0.071292 0.625150
vt 0.281412 0.782876
vt 0.348333 0.945154
vt 0.211988 0.619633
vt 0.211998 0.624691
vt 0.211988 0.955269
vt 0.071282 0.619633
vt 0.211998 0.950211
vt 0.071292 0.960785
vt 0.071282 0.966302
vt 0.142782 0.960786
vt 0.754625 0.977060
vt 0.348541 0.781912
vt 0.415463 0.619633
vt 0.173400 0.006599
vt 0.336679 0.000536
vt 0.332029 0.006599
vt 0.332029 0.612016
vt 0.173400 0.612016
vt 0.336679 0.618079
vt 0.004650 0.612016
vt 0.000000 0.000536
vt 0.004650 0.006599
vt 0.163278 0.006599
vt 0.163278 0.612016
vt 0.000000 0.618079
vt 0.831893 0.000000
vt 0.673265 0.605416
vt 0.673265 0.000000
vt 0.831893 0.605416
vt 0.831894 0.605416
vt 0.990522 0.000000
vt 0.990522 0.605416
vt 0.831894 0.000000
vt 0.992791 0.605416
vt 0.990522 0.000000
vt 0.992791 0.000000
vt 0.990522 0.605416
vt 0.415671 0.825101
vt 0.417720 0.619776
vt 0.417720 0.826261
vt 0.415671 0.618615
vt 0.419768 0.825101
vt 0.417720 0.619776
vt 0.419768 0.618616
vt 0.417720 0.826262
vt 0.423865 0.825101
vt 0.421817 0.619776
vt 0.423865 0.618616
vt 0.421817 0.826262
vt 0.999597 0.605416
vt 0.997328 0.000000
vt 0.999597 0.000000
vt 0.997328 0.605416
vt 0.419768 0.825101
vt 0.421817 0.619776
vt 0.421817 0.826262
vt 0.419768 0.618615
vn 0.0000 -0.9003 -0.4352
vn 0.0000 -0.9003 0.4352
vn 0.0000 -0.0000 1.0000
vn 1.0000 0.0000 0.0000
vn -1.0000 0.0000 0.0000
vn 0.0000 -1.0000 0.0000
vn 0.0001 -0.9004 0.4351
vn 0.0000 -0.9004 0.4351
vn 0.5428 -0.8399 0.0000
vn 0.7139 -0.7002 0.0000
vn 0.7139 -0.7003 0.0000
vn 0.7138 -0.7003 0.0000
vn 0.7442 -0.6679 0.0000
vn 0.7443 -0.6679 0.0000
vn 0.7442 -0.6680 0.0000
vn -0.5428 -0.8399 0.0000
vn -0.7139 -0.7003 0.0000
vn -0.7139 -0.7002 0.0000
vn -0.7138 -0.7003 0.0000
vn -0.7442 -0.6679 0.0000
vn -0.7443 -0.6679 0.0000
vn -0.7442 -0.6680 0.0000
vn -0.9584 -0.0644 0.2780
vn -0.5429 0.8398 0.0000
vn -0.9584 -0.0644 -0.2781
vn 0.9584 -0.0649 0.2780
vn 0.5429 0.8398 0.0000
vn 0.9584 -0.0649 -0.2781
vn 0.6095 -0.7728 0.1769
vn 0.0472 -0.9837 0.1737
vn 0.8299 -0.5579 0.0000
vn 0.0472 -0.9837 -0.1737
vn 0.6095 -0.7728 -0.1768
vn 0.6095 -0.7728 0.1768
vn -0.0472 -0.9837 -0.1737
vn -0.6095 -0.7728 -0.1768
vn -0.0472 -0.9837 0.1737
vn -0.6095 -0.7728 0.1768
vn -0.8299 -0.5579 0.0000
vn 0.6926 -0.6494 -0.3139
vn 0.6927 -0.6493 -0.3139
vn -0.6927 -0.6493 -0.3139
vn -0.6926 -0.6494 -0.3139
vn -0.6921 -0.7218 0.0000
vn -0.6928 0.6493 0.3138
vn 0.0000 -0.2270 -0.9739
vn 0.6921 -0.7218 0.0000
vn -0.6928 0.6493 -0.3138
vn 0.6928 0.6493 0.3138
vn 0.0000 -0.2270 0.9739
vn 0.0000 1.0000 0.0000
vn 0.6928 0.6493 -0.3138
vn 0.6928 -0.6492 0.3138
vn 0.6927 -0.6493 0.3138
vn 0.0000 -0.9748 0.2230
vn 0.0001 -0.9748 0.2231
vn 0.0000 -0.9748 -0.2230
vn 0.6928 -0.6493 -0.3138
vn -0.0000 -0.9748 0.2231
vn -0.6928 -0.6493 0.3138
vn -0.6920 -0.7219 0.0000
vn -0.6928 -0.6493 -0.3138
vn -0.6927 -0.6494 -0.3138
vn -0.6927 -0.6494 -0.3139
vn -0.6927 -0.6494 0.3138
vn -0.6927 -0.6494 0.3139
vn -0.6927 -0.6493 0.3138
vn 0.6928 -0.6493 -0.3139
vn 0.6927 -0.6494 0.3139
vn 0.6927 -0.6493 0.3139
vn 0.6927 -0.6493 -0.3138
vn 0.6927 -0.6494 0.3138
vn 0.6928 -0.6493 0.3138
vn 0.6927 -0.6494 -0.3139
vn 0.6927 -0.6494 -0.3138
vn 0.0000 0.9003 0.4352
vn 0.0000 0.9003 -0.4352
vn 0.0000 0.0000 -1.0000
usemtl Material.003
s 1
f 2/1/1 4/2/1 1/3/1
f 2/1/1 3/4/1 4/2/1
s 2
f 6/5/1 8/6/1 5/7/1
f 6/5/1 7/8/1 8/6/1
s 3
f 10/9/1 12/10/1 9/11/1
f 10/9/1 11/12/1 12/10/1
s 4
f 14/13/2 16/14/2 13/15/2
f 14/13/2 15/16/2 16/14/2
s 5
f 18/17/3 20/18/3 17/19/3
f 18/17/3 19/20/3 20/18/3
s 6
f 22/21/4 24/22/4 25/23/4
f 26/24/4 21/25/4 22/21/4
f 22/21/4 23/26/4 24/22/4
f 25/23/4 26/24/4 22/21/4
s 7
f 28/27/3 30/28/3 27/29/3
f 28/27/3 29/30/3 30/28/3
s 8
f 32/31/5 34/32/5 35/33/5
f 36/34/5 31/35/5 32/31/5
f 32/31/5 33/36/5 34/32/5
f 35/33/5 36/34/5 32/31/5
s 9
f 38/37/2 40/38/2 37/39/2
f 38/37/2 39/40/2 40/38/2
s 10
f 51/41/6 53/42/6 55/43/6
f 68/44/6 41/45/6 67/46/6
f 41/45/6 42/47/6 63/48/6
f 67/46/6 41/45/6 65/49/6
f 42/47/6 43/50/6 44/51/6
f 44/51/6 45/52/6 46/53/6
f 46/53/6 47/54/6 48/55/6
f 49/56/6 50/57/6 51/41/6
f 44/51/6 46/53/6 42/47/6
f 46/53/6 48/55/6 42/47/6
f 65/49/6 66/58/6 67/46/6
f 63/48/6 64/59/6 65/49/6
f 60/60/6 61/61/6 62/62/6
f 63/48/6 65/49/6 41/45/6
f 63/48/6 42/47/6 48/55/6
f 62/62/6 63/48/6 48/55/6
f 62/62/6 48/55/6 49/56/6
f 58/63/6 59/64/6 60/60/6
f 60/60/6 62/62/6 56/65/6
f 62/62/6 49/56/6 55/43/6
f 51/41/6 52/66/6 53/42/6
f 62/62/6 55/43/6 56/65/6
f 49/56/6 51/41/6 55/43/6
f 56/65/6 57/67/6 58/63/6
f 58/63/6 60/60/6 56/65/6
f 53/42/6 54/68/6 55/43/6
s 11
f 69/69/5 71/70/5 72/71/5
f 113/72/5 115/73/5 112/74/5
f 70/75/5 115/73/5 71/70/5
f 69/69/5 70/75/5 71/70/5
f 113/72/5 114/76/5 115/73/5
f 70/75/5 112/74/5 115/73/5
s 12
f 74/77/2 76/78/2 73/79/2
f 74/77/2 75/80/2 76/78/2
s 13
f 78/81/4 80/82/4 77/83/4
f 97/84/4 99/85/4 96/86/4
f 77/83/4 97/84/4 78/81/4
f 78/81/4 79/87/4 80/82/4
f 97/84/4 98/88/4 99/85/4
f 77/83/4 98/88/4 97/84/4
s 14
f 81/89/5 82/90/5 83/91/5
s 15
f 85/92/2 87/93/2 84/94/2
f 85/92/2 86/95/2 87/93/2
s 16
f 89/96/1 91/97/1 88/98/1
f 89/96/1 90/99/1 91/97/1
s 17
f 93/100/4 95/101/4 92/102/4
f 117/103/4 119/104/4 116/105/4
f 93/100/4 116/105/4 94/106/4
f 93/100/4 94/106/4 95/101/4
f 117/103/4 118/107/4 119/104/4
f 93/100/4 117/103/4 116/105/4
s 18
f 101/108/1 103/109/1 100/110/1
f 101/108/1 102/111/1 103/109/1
s 19
f 105/112/5 107/113/5 104/114/5
f 128/115/5 130/116/5 131/117/5
f 107/113/5 129/118/5 104/114/5
f 105/112/5 106/119/5 107/113/5
f 128/115/5 129/118/5 130/116/5
f 107/113/5 130/116/5 129/118/5
s 20
f 109/120/1 111/121/1 108/122/1
f 109/120/1 110/123/1 111/121/1
s 21
f 121/124/2 123/125/7 120/126/2
f 121/124/2 122/127/7 123/125/7
s 22
f 125/128/2 127/129/8 124/130/8
f 125/128/2 126/131/2 127/129/8
s 23
f 132/132/9 39/40/9 109/120/9
s 24
f 94/106/10 110/133/10 38/134/10
f 94/106/10 116/105/10 110/133/10
s 25
f 98/88/11 7/135/11 85/136/10
f 98/88/11 77/83/12 7/135/11
s 26
f 86/137/13 117/103/13 93/100/14
f 86/137/13 6/138/13 117/103/13
s 27
f 121/139/15 78/81/15 97/84/15
f 121/139/15 2/140/15 78/81/15
s 28
f 82/141/16 102/111/16 74/77/16
s 29
f 101/142/17 129/118/18 75/143/18
f 101/142/17 104/114/17 129/118/18
s 30
f 112/74/17 15/144/17 10/145/17
f 112/74/17 70/75/19 15/144/17
s 31
f 107/113/20 14/146/20 130/116/21
f 107/113/20 11/147/20 14/146/20
s 32
f 71/70/22 89/148/22 125/149/22
f 71/70/22 115/73/22 89/148/22
s 33
f 56/150/23 133/151/23 31/35/23
s 34
f 134/152/24 135/153/24 32/154/24
s 35
f 41/155/25 33/36/25 136/156/25
s 36
f 23/26/26 137/157/26 55/158/26
s 37
f 22/159/27 138/160/27 139/161/27
s 38
f 140/162/28 21/25/28 42/163/28
s 39
f 43/50/29 26/164/29 123/125/29
s 40
f 122/127/30 96/165/30 44/51/30
s 41
f 3/166/31 120/167/31 25/23/31
s 42
f 1/3/32 53/42/32 79/168/32
s 43
f 54/68/33 4/2/33 24/169/33
s 44
f 87/93/30 92/170/30 46/53/30
s 45
f 80/171/33 52/66/33 8/6/33
s 46
f 99/172/34 84/94/34 45/52/34
s 47
f 5/7/32 51/41/32 118/173/32
s 48
f 119/174/33 50/57/33 111/121/33
s 49
f 95/175/34 37/39/34 47/54/34
s 50
f 40/38/30 141/176/30 48/55/30
s 51
f 142/177/32 108/122/32 49/56/32
s 52
f 81/178/35 62/62/35 103/109/35
s 53
f 100/110/36 61/61/36 105/179/36
s 54
f 73/79/37 63/48/37 83/180/37
s 55
f 76/78/38 128/181/38 64/59/38
s 56
f 124/130/37 67/46/37 72/182/37
s 57
f 68/44/38 127/129/38 34/183/38
s 58
f 88/184/39 35/33/39 126/185/39
s 59
f 13/15/37 65/49/37 131/186/37
s 60
f 16/14/38 69/187/38 66/58/38
s 61
f 36/188/36 91/97/36 57/67/36
s 62
f 90/99/35 114/189/35 58/63/35
s 63
f 9/11/36 59/64/36 113/190/36
s 64
f 12/10/35 106/191/35 60/60/35
s 65
f 142/192/40 109/193/41 108/194/40
f 142/192/40 132/195/41 109/193/41
s 66
f 109/120/6 38/37/6 110/123/6
f 109/120/6 39/40/6 38/37/6
s 67
f 6/5/6 85/92/6 7/8/6
f 6/5/6 86/95/6 85/92/6
s 68
f 2/1/6 120/126/6 3/4/6
f 2/1/6 121/124/6 120/126/6
s 69
f 102/196/42 81/89/43 103/197/43
f 102/196/42 82/90/42 81/89/43
s 70
f 74/77/6 101/108/6 75/80/6
f 74/77/6 102/111/6 101/108/6
s 71
f 14/13/6 10/9/6 15/16/6
f 14/13/6 11/12/6 10/9/6
s 72
f 125/128/6 88/98/6 126/131/6
f 125/128/6 89/96/6 88/98/6
s 73
f 57/198/44 31/35/44 36/34/44
f 57/198/44 56/150/44 31/35/44
s 74
f 134/199/45 31/35/45 133/151/45
f 134/199/45 32/31/45 31/35/45
s 75
f 41/200/46 140/201/46 42/202/46
f 41/200/46 136/203/46 140/201/46
s 76
f 43/204/47 21/25/47 26/24/47
f 43/204/47 42/163/47 21/25/47
s 77
f 135/205/48 33/36/48 32/31/48
f 135/205/48 136/156/48 33/36/48
s 78
f 139/206/49 23/26/49 22/21/49
f 139/206/49 137/157/49 23/26/49
s 79
f 55/207/50 133/208/50 56/209/50
f 55/207/50 137/210/50 133/208/50
s 80
f 135/153/51 139/161/51 138/160/51
f 135/153/51 134/152/51 139/161/51
s 81
f 21/25/52 138/211/52 22/21/52
f 21/25/52 140/162/52 138/211/52
s 82
f 120/167/53 26/24/54 25/23/53
f 120/167/53 123/212/54 26/24/54
s 83
f 43/50/55 122/127/55 44/51/55
f 43/50/55 123/125/56 122/127/55
s 84
f 1/3/57 54/68/57 53/42/57
f 1/3/57 4/2/57 54/68/57
s 85
f 24/22/58 3/166/58 25/23/58
f 24/22/58 4/213/58 3/166/58
s 86
f 79/87/47 52/214/47 80/82/47
f 79/87/47 53/215/47 52/214/47
s 87
f 96/86/47 45/216/47 44/217/47
f 96/86/47 99/85/47 45/216/47
s 88
f 87/93/55 45/52/55 84/94/55
f 87/93/55 46/53/55 45/52/55
s 89
f 5/7/57 52/66/57 51/41/57
f 5/7/57 8/6/57 52/66/57
s 90
f 92/102/47 47/218/47 46/219/47
f 92/102/47 95/101/47 47/218/47
s 91
f 118/107/47 50/220/47 119/104/47
f 118/107/47 51/221/47 50/220/47
s 92
f 108/122/57 50/57/57 49/56/57
f 108/122/57 111/121/57 50/57/57
s 93
f 40/38/59 47/54/55 37/39/55
f 40/38/59 48/55/59 47/54/55
s 94
f 49/222/47 141/223/47 142/192/47
f 49/222/47 48/224/47 141/223/47
s 95
f 61/61/57 103/109/57 62/62/57
f 61/61/57 100/110/57 103/109/57
s 96
f 64/59/55 73/79/55 76/78/55
f 64/59/55 63/48/55 73/79/55
s 97
f 124/130/55 68/44/55 67/46/55
f 124/130/55 127/129/55 68/44/55
s 98
f 34/32/60 126/185/60 35/33/60
f 34/32/60 127/225/60 126/185/60
s 99
f 66/58/55 13/15/55 16/14/55
f 66/58/55 65/49/55 13/15/55
s 100
f 62/226/44 83/91/44 63/227/44
f 62/226/44 81/89/44 83/91/44
s 101
f 64/228/44 131/117/44 65/229/44
f 64/228/44 128/115/44 131/117/44
s 102
f 66/230/44 72/71/61 67/231/61
f 66/230/44 69/69/44 72/71/61
s 103
f 57/67/57 90/99/57 58/63/57
f 57/67/57 91/97/57 90/99/57
s 104
f 88/184/62 36/34/62 35/33/62
f 88/184/62 91/232/62 36/34/62
s 105
f 59/64/57 12/10/57 60/60/57
f 59/64/57 9/11/57 12/10/57
s 106
f 114/76/44 59/233/44 58/234/44
f 114/76/44 113/72/44 59/233/44
s 107
f 106/119/44 61/235/44 60/236/44
f 106/119/44 105/112/44 61/235/44
s 108
f 106/119/42 11/147/63 107/113/63
f 106/119/42 12/237/42 11/147/63
s 109
f 100/238/62 104/114/62 101/142/62
f 100/238/62 105/112/62 104/114/62
s 110
f 114/76/63 89/148/64 115/73/64
f 114/76/63 90/239/63 89/148/64
s 111
f 14/146/60 131/117/65 130/116/60
f 14/146/60 13/240/65 131/117/65
s 112
f 70/75/66 16/241/65 15/144/66
f 70/75/66 69/69/65 16/241/65
s 113
f 129/118/67 76/242/67 75/143/67
f 129/118/67 128/115/67 76/242/67
s 114
f 125/149/66 72/71/66 71/70/66
f 125/149/66 124/243/66 72/71/66
s 115
f 54/244/47 23/26/47 55/158/47
f 54/244/47 24/22/47 23/26/47
s 116
f 77/83/41 8/245/68 7/135/41
f 77/83/41 80/82/68 8/245/68
s 117
f 141/223/69 39/246/70 132/195/70
f 141/223/69 40/247/69 39/246/70
s 118
f 6/138/71 118/107/41 117/103/71
f 6/138/71 5/248/41 118/107/41
s 119
f 116/105/71 111/249/71 110/133/71
f 116/105/71 119/104/71 111/249/71
s 120
f 92/102/72 86/137/73 93/100/73
f 92/102/72 87/250/72 86/137/73
s 121
f 2/140/74 79/87/75 78/81/74
f 2/140/74 1/251/75 79/87/75
s 122
f 37/252/73 94/106/73 38/134/73
f 37/252/73 95/101/73 94/106/73
s 123
f 84/253/72 98/88/69 85/136/69
f 84/253/72 99/85/72 98/88/69
s 124
f 96/86/69 121/139/69 97/84/69
f 96/86/69 122/254/69 121/139/69
s 125
f 9/255/42 112/74/64 10/145/64
f 9/255/42 113/72/42 112/74/64
s 126
f 68/256/44 33/36/44 41/155/44
f 68/256/44 34/32/44 33/36/44
s 127
f 74/257/66 83/91/66 82/90/66
f 74/257/66 73/258/66 83/91/66
s 128
f 141/223/4 132/195/4 142/192/4
s 129
f 18/259/76 133/260/76 143/261/76
f 145/262/76 139/161/76 17/263/76
f 143/261/76 137/264/76 145/262/76
f 17/263/76 134/152/76 18/259/76
f 18/259/76 134/152/76 133/260/76
f 145/262/76 137/264/76 139/161/76
f 143/261/76 133/260/76 137/264/76
f 17/263/76 139/161/76 134/152/76
s 130
f 27/265/77 136/266/77 28/267/77
f 28/267/77 135/153/77 144/268/77
f 144/268/77 138/160/77 146/269/77
f 146/269/77 140/270/77 27/265/77
f 27/265/77 140/270/77 136/266/77
f 28/267/77 136/266/77 135/153/77
f 144/268/77 135/153/77 138/160/77
f 146/269/77 138/160/77 140/270/77
s 131
f 20/271/76 148/272/76 147/273/76
f 20/271/76 19/274/76 148/272/76
s 132
f 149/275/77 30/276/77 29/277/77
f 149/275/77 150/278/77 30/276/77
s 133
f 145/279/78 148/280/78 143/281/78
f 145/279/78 147/282/78 148/280/78
s 134
f 28/283/4 149/284/4 29/285/4
f 28/283/4 144/286/4 149/284/4
s 135
f 143/287/4 19/288/4 18/289/4
f 143/287/4 148/290/4 19/288/4
s 136
f 27/291/5 150/292/5 146/293/5
f 27/291/5 30/294/5 150/292/5
s 137
f 146/295/78 149/296/78 144/297/78
f 146/295/78 150/298/78 149/296/78
s 138
f 145/299/5 20/300/5 147/301/5
f 145/299/5 17/302/5 20/300/5
