# Blender v2.92.0 OBJ File: 'Mausoleo_June_Set.blend'
# www.blender.org
mtllib Mausoleo_Tettocornice.mtl
o Mausoleocapitello.app_Cube.006
v -4.764053 3.291771 3.017507
v -4.764053 3.291771 -3.017507
v 4.764053 3.291771 3.017507
v 4.764053 3.291771 -3.017507
v -4.677464 3.201308 2.962662
v -4.677464 3.201308 -2.962662
v 4.677464 3.201308 2.962662
v 4.677464 3.201308 -2.962662
v -4.799798 3.360983 3.040148
v -4.799798 3.360983 -3.040148
v 4.799798 3.360983 3.040148
v 4.799798 3.360983 -3.040148
v -4.658381 3.143667 2.898731
v -4.658381 3.360983 2.898731
v -4.658381 3.143667 -2.898731
v -4.658381 3.360983 -2.898731
v 4.658381 3.143667 2.898731
v 4.658381 3.360983 2.898731
v 4.658381 3.143667 -2.898731
v 4.658381 3.360983 -2.898731
v -4.677464 3.143667 2.917813
v -4.677464 3.143667 2.962662
v -4.677464 3.143667 -2.917813
v -4.677464 3.143667 -2.962662
v 4.677464 3.143667 -2.962662
v 4.677464 3.143667 -2.917813
v 4.677464 3.143667 2.917813
v 4.677464 3.143667 2.962662
v -4.764053 3.201308 3.017507
v -4.764053 3.201308 -3.017507
v -4.764053 3.201308 -3.017507
v 4.764053 3.201308 -3.017507
v 4.764053 3.201308 -3.017507
v 4.764053 3.201308 3.017507
v 4.764053 3.201308 3.017507
v -4.764053 3.201308 3.017507
v -4.799798 3.291771 -3.040147
v -4.799798 3.291771 3.040147
v 4.799798 3.291771 -3.040147
v 4.799798 3.291771 -3.040148
v -4.799798 3.291771 -3.040148
v 4.799798 3.291771 3.040147
v -4.799798 3.291771 3.040148
v 4.799798 3.291771 3.040148
vt 0.011488 0.507476
vt 0.011488 0.813955
vt 0.000000 0.813955
vt 0.000000 0.507476
vt 0.984874 0.000000
vt 0.984874 0.492524
vt 0.973386 0.492524
vt 0.973386 0.000000
vt 0.022976 0.507476
vt 0.022976 0.813955
vt 0.011488 0.813955
vt 0.011488 0.507476
vt 0.973386 0.000000
vt 0.973386 0.492524
vt 0.961898 0.492524
vt 0.961898 0.000000
vt 0.321430 0.507476
vt 0.000000 0.507476
vt 0.007476 0.500000
vt 0.313955 0.500000
vt 0.321430 0.000000
vt 0.313955 0.007476
vt 0.000000 0.000000
vt 0.007476 0.007476
vt 0.042906 0.507476
vt 0.042906 0.820714
vt 0.039859 0.820714
vt 0.039859 0.818343
vt 0.039859 0.509847
vt 0.039859 0.507476
vt 0.968604 0.987066
vt 0.965557 0.987066
vt 0.965557 0.492524
vt 0.968604 0.492524
vt 0.042906 0.507476
vt 0.045953 0.507476
vt 0.045953 0.820714
vt 0.042906 0.820714
vt 0.042906 0.818343
vt 0.042906 0.509847
vt 0.971651 0.987066
vt 0.968604 0.987066
vt 0.968604 0.492524
vt 0.971651 0.492524
vt 0.952719 0.504705
vt 0.646241 0.504705
vt 0.645232 0.503696
vt 0.953728 0.503696
vt 0.953728 0.998238
vt 0.952719 0.997229
vt 0.956099 0.503696
vt 0.956099 0.998238
vt 0.646241 0.997229
vt 0.645232 0.998238
vt 0.642861 0.998238
vt 0.642861 0.503696
vt 0.022977 0.826513
vt 0.022977 0.507476
vt 0.027759 0.507476
vt 0.027759 0.826513
vt 0.984874 0.503696
vt 0.984874 0.000000
vt 0.989657 0.000000
vt 0.989657 0.000000
vt 0.989657 0.503696
vt 0.989657 0.503696
vt 0.032541 0.826513
vt 0.027759 0.826513
vt 0.027759 0.507476
vt 0.032541 0.507476
vt 0.994439 0.503696
vt 0.989657 0.503696
vt 0.989657 0.000000
vt 0.994439 0.000000
vt 0.994439 0.000000
vt 0.994439 0.503696
vt 0.642861 0.000000
vt 0.641664 0.001890
vt 0.322627 0.001890
vt 0.321430 0.000000
vt 0.642861 0.507476
vt 0.641664 0.505586
vt 0.642861 0.000000
vt 0.642861 0.507476
vt 0.322627 0.505586
vt 0.321430 0.507476
vt 0.321430 0.507476
vt 0.321430 0.000000
vt 0.958999 0.004578
vt 0.645761 0.004578
vt 0.642861 0.000000
vt 0.642861 0.000000
vt 0.961898 0.000000
vt 0.961898 0.000000
vt 0.961898 0.503696
vt 0.958999 0.499119
vt 0.645761 0.499119
vt 0.961898 0.503696
vt 0.642861 0.503696
vt 0.642861 0.503696
vt 0.036200 0.507476
vt 0.039859 0.507476
vt 0.039859 0.828907
vt 0.036200 0.828907
vt 0.036200 0.828906
vt 0.036200 0.507476
vt 0.965557 1.000000
vt 0.961898 1.000000
vt 0.961898 0.492524
vt 0.965557 0.492524
vt 0.032541 0.507476
vt 0.036200 0.507476
vt 0.036200 0.828907
vt 0.032541 0.828907
vt 0.032541 0.828906
vt 0.032541 0.507476
vt 0.998098 0.507476
vt 0.994439 0.507476
vt 0.994439 0.000000
vt 0.998098 0.000000
vn 1.0000 0.0000 0.0000
vn 0.0000 0.0000 1.0000
vn -1.0000 0.0000 0.0000
vn 0.0000 0.0000 -1.0000
vn 0.0000 1.0000 0.0000
vn 0.0000 -1.0000 0.0000
usemtl Material.009
s off
f 13/1/1 15/2/1 16/3/1 14/4/1
f 15/5/2 19/6/2 20/7/2 16/8/2
f 19/9/3 17/10/3 18/11/3 20/12/3
f 17/13/4 13/14/4 14/15/4 18/16/4
f 10/17/5 9/18/5 14/19/5 16/20/5
f 12/21/5 10/17/5 16/20/5 20/22/5
f 11/23/5 12/21/5 20/22/5 18/24/5
f 9/18/5 11/23/5 18/24/5 14/19/5
f 5/25/3 6/26/3 24/27/3 23/28/3 21/29/3 22/30/3
f 24/31/4 6/32/4 8/33/4 25/34/4
f 25/35/1 8/36/1 7/37/1 28/38/1 27/39/1 26/40/1
f 28/41/2 7/42/2 5/43/2 22/44/2
f 15/45/6 13/46/6 21/47/6 23/48/6
f 26/49/6 19/50/6 15/45/6 23/48/6 24/51/6 25/52/6
f 17/53/6 19/50/6 26/49/6 27/54/6
f 21/47/6 13/46/6 17/53/6 27/54/6 28/55/6 22/56/6
f 1/57/3 2/58/3 30/59/3 29/60/3
f 2/61/4 4/62/4 33/63/4 32/64/4 31/65/4 30/66/4
f 33/67/1 4/68/1 3/69/1 34/70/1
f 34/71/2 3/72/2 1/73/2 29/74/2 36/75/2 35/76/2
f 37/77/6 2/78/6 1/79/6 38/80/6
f 39/81/6 4/82/6 2/78/6 37/77/6 41/83/6 40/84/6
f 3/85/6 4/82/6 39/81/6 42/86/6
f 1/79/6 3/85/6 42/86/6 44/87/6 43/88/6 38/80/6
f 6/89/6 5/90/6 36/91/6 29/92/6 30/93/6 31/94/6
f 32/95/6 8/96/6 6/89/6 31/94/6
f 7/97/6 8/96/6 32/95/6 33/98/6 34/99/6 35/100/6
f 36/91/6 5/90/6 7/97/6 35/100/6
f 43/101/3 9/102/3 10/103/3 41/104/3 37/105/3 38/106/3
f 41/107/4 10/108/4 12/109/4 40/110/4
f 40/111/1 12/112/1 11/113/1 44/114/1 42/115/1 39/116/1
f 44/117/2 11/118/2 9/119/2 43/120/2
